<?xml version="1.0" encoding="utf-8"?>
<!-- Generator: Adobe Illustrator 26.0.0, SVG Export Plug-In . SVG Version: 6.00 Build 0)  -->
<svg version="1.1" id="Layer_1" xmlns="http://www.w3.org/2000/svg" xmlns:xlink="http://www.w3.org/1999/xlink" x="0px" y="0px"
	 viewBox="0 0 502.2 501.8" style="enable-background:new 0 0 502.2 501.8;" xml:space="preserve">
<style type="text/css">
	.st0{fill:#0D3B54;}
	.st1{fill:#19BAC3;}
	.st2{fill:#0EA4E1;}
	.st3{fill:#FFFFFF;}
	.st4{fill:#09D3C9;}
	.st5{fill:#0E7CB7;}
	.st6{fill:#0AA5D2;}
	.st7{fill:#12CDC5;}
</style>
<path class="st0" d="M473.7,494.3H33.8c-12.4,0-22.6-10-22.6-22.6V31.9c0-12.2,10-22.6,22.6-22.6h439.7c12.4,0,22.6,10,22.6,22.6
	v439.7C496,484.3,486,494.3,473.7,494.3z"/>
<g>
	<rect x="152.6" y="152.8" class="st1" width="23.1" height="23.1"/>
	<rect x="129.1" y="125.1" class="st2" width="14.7" height="14.7"/>
	<rect x="140.7" y="87.5" class="st3" width="6.7" height="6.7"/>
	<rect x="159.9" y="109.8" class="st3" width="10" height="10"/>
	<rect x="159.2" y="217.3" class="st3" width="10" height="10"/>
	<rect x="216.2" y="94.5" class="st3" width="8.3" height="8.3"/>
	<rect x="187.9" y="183" class="st4" width="40.9" height="40.9"/>
	<rect x="189.3" y="117.4" class="st5" width="23.9" height="23.9"/>
	<rect x="132.8" y="188.1" class="st6" width="14.9" height="14.9"/>
	<path class="st3" d="M361.9,128.1c-22.3-22-49.7-33-82.1-33h-29.5v21.8h-20v48.9h49.5c11.6,0,21.2,4.1,28.8,12.3
		c7.5,8.2,11.3,18.2,11.3,30.2c0,12-3.8,22-11.3,30.2c-7.5,8.2-17.1,12.3-28.8,12.3h-49.5v0h-41.6v43.9h-33.8v130.7h75.5V321.5h49.5
		c32.4,0,59.8-11,82.1-33c22.3-22,33.5-48.8,33.5-80.2C395.4,176.8,384.2,150.1,361.9,128.1z"/>
	<rect x="144" y="250.5" class="st3" width="30.1" height="30.1"/>
</g>
</svg>
